<svg xmlns="http://www.w3.org/2000/svg" viewBox="0 0 64 64">
  <defs>
    <linearGradient id="g" x1="8" y1="8" x2="56" y2="56" gradientUnits="userSpaceOnUse">
      <stop stop-color="#6544f2"/>
      <stop offset="0.55" stop-color="#b24fe8"/>
      <stop offset="1" stop-color="#e84fc7"/>
    </linearGradient>
  </defs>
  <rect width="64" height="64" rx="14" fill="url(#g)"/>
  <path d="M21 13h20l8 8v30a3 3 0 0 1-3 3H21a3 3 0 0 1-3-3V16a3 3 0 0 1 3-3Z" fill="white" opacity=".96"/>
  <path d="M40 13v9h9" fill="#ddd6fe"/>
  <path d="M25 31h18M25 38h14M25 45h10" stroke="#4c1d95" stroke-width="3" stroke-linecap="round"/>
  <path d="M18 10l2 5 5 2-5 2-2 5-2-5-5-2 5-2 2-5ZM49 35l1.5 3.5L54 40l-3.5 1.5L49 45l-1.5-3.5L44 40l3.5-1.5L49 35Z" fill="#fff"/>
</svg>
